<mxfile host="app.diagrams.net" modified="2023-05-26T04:50:49.955Z" agent="Mozilla/5.0 (Macintosh; Intel Mac OS X 10_15_7) AppleWebKit/537.36 (KHTML, like Gecko) Chrome/113.0.0.0 Safari/537.36" etag="cfx1mEwhqE3alPForG5n" version="21.3.3" type="device">
  <diagram name="Page-1" id="DMOe8OSXWz80Gmf5uPHw">
    <mxGraphModel dx="1774" dy="1020" grid="1" gridSize="10" guides="1" tooltips="1" connect="1" arrows="1" fold="1" page="1" pageScale="1" pageWidth="850" pageHeight="1100" math="0" shadow="0">
      <root>
        <mxCell id="0" />
        <mxCell id="1" parent="0" />
        <mxCell id="IGg63-WKs-m-qAbdVnEL-1" value="" style="rounded=0;whiteSpace=wrap;html=1;fillColor=#e1d5e7;strokeColor=#9673a6;" parent="1" vertex="1">
          <mxGeometry x="240" y="400" width="290" height="220" as="geometry" />
        </mxCell>
        <mxCell id="IGg63-WKs-m-qAbdVnEL-2" value="&lt;b&gt;&lt;i&gt;Data&lt;/i&gt;&lt;/b&gt;" style="text;html=1;strokeColor=none;fillColor=none;align=center;verticalAlign=middle;whiteSpace=wrap;rounded=0;" parent="1" vertex="1">
          <mxGeometry x="240" y="410" width="50" height="30" as="geometry" />
        </mxCell>
        <mxCell id="IGg63-WKs-m-qAbdVnEL-3" value="Data Sources" style="rounded=1;whiteSpace=wrap;html=1;fillColor=#f5f5f5;fontColor=#333333;strokeColor=#666666;fontStyle=1;" parent="1" vertex="1">
          <mxGeometry x="255" y="540" width="120" height="60" as="geometry" />
        </mxCell>
        <mxCell id="IGg63-WKs-m-qAbdVnEL-4" value="Repositories" style="rounded=1;whiteSpace=wrap;html=1;fillColor=#f5f5f5;fontColor=#333333;strokeColor=#666666;fontStyle=1;" parent="1" vertex="1">
          <mxGeometry x="255" y="460" width="120" height="60" as="geometry" />
        </mxCell>
        <mxCell id="IGg63-WKs-m-qAbdVnEL-5" value="" style="endArrow=diamond;html=1;rounded=0;exitX=0.5;exitY=0;exitDx=0;exitDy=0;entryX=0.5;entryY=1;entryDx=0;entryDy=0;endFill=0;" parent="1" source="IGg63-WKs-m-qAbdVnEL-3" target="IGg63-WKs-m-qAbdVnEL-4" edge="1">
          <mxGeometry width="50" height="50" relative="1" as="geometry">
            <mxPoint x="475" y="470" as="sourcePoint" />
            <mxPoint x="525" y="420" as="targetPoint" />
          </mxGeometry>
        </mxCell>
        <mxCell id="IGg63-WKs-m-qAbdVnEL-7" style="edgeStyle=orthogonalEdgeStyle;rounded=0;orthogonalLoop=1;jettySize=auto;html=1;exitX=0;exitY=0.5;exitDx=0;exitDy=0;entryX=1;entryY=0.5;entryDx=0;entryDy=0;endArrow=diamond;endFill=0;" parent="1" source="IGg63-WKs-m-qAbdVnEL-6" target="IGg63-WKs-m-qAbdVnEL-4" edge="1">
          <mxGeometry relative="1" as="geometry" />
        </mxCell>
        <mxCell id="IGg63-WKs-m-qAbdVnEL-6" value="Mapper" style="rounded=1;whiteSpace=wrap;html=1;fillColor=#f5f5f5;fontColor=#333333;strokeColor=#666666;fontStyle=1;" parent="1" vertex="1">
          <mxGeometry x="395" y="460" width="120" height="60" as="geometry" />
        </mxCell>
        <mxCell id="IGg63-WKs-m-qAbdVnEL-11" style="edgeStyle=orthogonalEdgeStyle;rounded=0;orthogonalLoop=1;jettySize=auto;html=1;entryX=0.5;entryY=1;entryDx=0;entryDy=0;endArrow=oval;endFill=0;" parent="1" source="IGg63-WKs-m-qAbdVnEL-10" target="IGg63-WKs-m-qAbdVnEL-3" edge="1">
          <mxGeometry relative="1" as="geometry" />
        </mxCell>
        <mxCell id="IGg63-WKs-m-qAbdVnEL-10" value="&lt;i&gt;Flutter Deriv API&lt;/i&gt;" style="ellipse;whiteSpace=wrap;html=1;fillColor=#d5e8d4;strokeColor=#82b366;fontStyle=1" parent="1" vertex="1">
          <mxGeometry x="255" y="650" width="120" height="50" as="geometry" />
        </mxCell>
        <mxCell id="IGg63-WKs-m-qAbdVnEL-12" value="" style="rounded=0;whiteSpace=wrap;html=1;fillColor=#fff2cc;strokeColor=#d6b656;" parent="1" vertex="1">
          <mxGeometry x="240" y="260" width="290" height="140" as="geometry" />
        </mxCell>
        <mxCell id="IGg63-WKs-m-qAbdVnEL-13" value="&lt;b&gt;&lt;i&gt;Domain&lt;/i&gt;&lt;/b&gt;" style="text;html=1;strokeColor=none;fillColor=none;align=center;verticalAlign=middle;whiteSpace=wrap;rounded=0;" parent="1" vertex="1">
          <mxGeometry x="240" y="270" width="60" height="30" as="geometry" />
        </mxCell>
        <mxCell id="IGg63-WKs-m-qAbdVnEL-14" value="Base Repositories" style="rounded=1;whiteSpace=wrap;html=1;fillColor=#f5f5f5;strokeColor=#666666;fontColor=#333333;fontStyle=1;" parent="1" vertex="1">
          <mxGeometry x="255" y="320" width="120" height="60" as="geometry" />
        </mxCell>
        <mxCell id="IGg63-WKs-m-qAbdVnEL-15" style="edgeStyle=orthogonalEdgeStyle;rounded=0;orthogonalLoop=1;jettySize=auto;html=1;entryX=0.5;entryY=1;entryDx=0;entryDy=0;endArrow=block;endFill=0;" parent="1" source="IGg63-WKs-m-qAbdVnEL-4" target="IGg63-WKs-m-qAbdVnEL-14" edge="1">
          <mxGeometry relative="1" as="geometry" />
        </mxCell>
        <mxCell id="IGg63-WKs-m-qAbdVnEL-17" style="edgeStyle=orthogonalEdgeStyle;rounded=0;orthogonalLoop=1;jettySize=auto;html=1;exitX=0;exitY=0.5;exitDx=0;exitDy=0;entryX=1;entryY=0.5;entryDx=0;entryDy=0;endArrow=diamond;endFill=0;" parent="1" source="IGg63-WKs-m-qAbdVnEL-16" target="IGg63-WKs-m-qAbdVnEL-14" edge="1">
          <mxGeometry relative="1" as="geometry" />
        </mxCell>
        <mxCell id="IGg63-WKs-m-qAbdVnEL-16" value="Base Services" style="rounded=1;whiteSpace=wrap;html=1;fillColor=#f5f5f5;fontColor=#333333;strokeColor=#666666;fontStyle=1;" parent="1" vertex="1">
          <mxGeometry x="395" y="320" width="120" height="60" as="geometry" />
        </mxCell>
        <mxCell id="IGg63-WKs-m-qAbdVnEL-18" value="" style="rounded=0;whiteSpace=wrap;html=1;fillColor=#dae8fc;strokeColor=#6c8ebf;" parent="1" vertex="1">
          <mxGeometry x="240" y="40" width="290" height="220" as="geometry" />
        </mxCell>
        <mxCell id="IGg63-WKs-m-qAbdVnEL-19" value="&lt;b&gt;&lt;i&gt;Presentation&lt;/i&gt;&lt;/b&gt;" style="text;html=1;strokeColor=none;fillColor=none;align=center;verticalAlign=middle;whiteSpace=wrap;rounded=0;" parent="1" vertex="1">
          <mxGeometry x="240" y="50" width="90" height="30" as="geometry" />
        </mxCell>
        <mxCell id="IGg63-WKs-m-qAbdVnEL-24" style="edgeStyle=orthogonalEdgeStyle;rounded=0;orthogonalLoop=1;jettySize=auto;html=1;exitX=0.5;exitY=0;exitDx=0;exitDy=0;entryX=0.75;entryY=1;entryDx=0;entryDy=0;endArrow=diamond;endFill=0;" parent="1" source="IGg63-WKs-m-qAbdVnEL-20" target="IGg63-WKs-m-qAbdVnEL-23" edge="1">
          <mxGeometry relative="1" as="geometry" />
        </mxCell>
        <mxCell id="IGg63-WKs-m-qAbdVnEL-20" value="Blocs" style="rounded=1;whiteSpace=wrap;html=1;fillColor=#f5f5f5;fontColor=#333333;strokeColor=#666666;fontStyle=1;" parent="1" vertex="1">
          <mxGeometry x="395" y="180" width="120" height="60" as="geometry" />
        </mxCell>
        <mxCell id="IGg63-WKs-m-qAbdVnEL-21" style="edgeStyle=orthogonalEdgeStyle;rounded=0;orthogonalLoop=1;jettySize=auto;html=1;exitX=0.5;exitY=0;exitDx=0;exitDy=0;endArrow=diamond;endFill=0;" parent="1" source="IGg63-WKs-m-qAbdVnEL-16" target="IGg63-WKs-m-qAbdVnEL-20" edge="1">
          <mxGeometry relative="1" as="geometry" />
        </mxCell>
        <mxCell id="IGg63-WKs-m-qAbdVnEL-25" style="edgeStyle=orthogonalEdgeStyle;rounded=0;orthogonalLoop=1;jettySize=auto;html=1;exitX=0.5;exitY=0;exitDx=0;exitDy=0;entryX=0.361;entryY=1.008;entryDx=0;entryDy=0;entryPerimeter=0;endArrow=diamond;endFill=0;" parent="1" source="IGg63-WKs-m-qAbdVnEL-22" target="IGg63-WKs-m-qAbdVnEL-23" edge="1">
          <mxGeometry relative="1" as="geometry" />
        </mxCell>
        <mxCell id="IGg63-WKs-m-qAbdVnEL-22" value="Widgets" style="rounded=1;whiteSpace=wrap;html=1;fillColor=#f5f5f5;fontColor=#333333;strokeColor=#666666;fontStyle=1;" parent="1" vertex="1">
          <mxGeometry x="255" y="180" width="120" height="60" as="geometry" />
        </mxCell>
        <mxCell id="IGg63-WKs-m-qAbdVnEL-23" value="Pages" style="rounded=1;whiteSpace=wrap;html=1;fillColor=#f5f5f5;fontColor=#333333;strokeColor=#666666;fontStyle=1" parent="1" vertex="1">
          <mxGeometry x="255" y="100" width="255" height="60" as="geometry" />
        </mxCell>
        <mxCell id="IGg63-WKs-m-qAbdVnEL-27" style="edgeStyle=orthogonalEdgeStyle;rounded=0;orthogonalLoop=1;jettySize=auto;html=1;exitX=0;exitY=0.5;exitDx=0;exitDy=0;entryX=1;entryY=0.5;entryDx=0;entryDy=0;endArrow=oval;endFill=0;" parent="1" source="IGg63-WKs-m-qAbdVnEL-26" target="IGg63-WKs-m-qAbdVnEL-20" edge="1">
          <mxGeometry relative="1" as="geometry" />
        </mxCell>
        <mxCell id="IGg63-WKs-m-qAbdVnEL-26" value="&lt;i&gt;Bloc Manager&lt;/i&gt;" style="ellipse;whiteSpace=wrap;html=1;fillColor=#d5e8d4;strokeColor=#82b366;fontStyle=1" parent="1" vertex="1">
          <mxGeometry x="580" y="185" width="120" height="50" as="geometry" />
        </mxCell>
        <mxCell id="IGg63-WKs-m-qAbdVnEL-28" value="" style="rounded=0;whiteSpace=wrap;html=1;fillColor=#dae8fc;strokeColor=#6c8ebf;" parent="1" vertex="1">
          <mxGeometry x="40" y="750" width="790" height="290" as="geometry" />
        </mxCell>
        <mxCell id="IGg63-WKs-m-qAbdVnEL-29" value="" style="rounded=0;whiteSpace=wrap;html=1;fillColor=#fff2cc;strokeColor=#d6b656;" parent="1" vertex="1">
          <mxGeometry x="40" y="1040" width="790" height="310" as="geometry" />
        </mxCell>
        <mxCell id="IGg63-WKs-m-qAbdVnEL-30" value="" style="rounded=0;whiteSpace=wrap;html=1;fillColor=#e1d5e7;strokeColor=#9673a6;" parent="1" vertex="1">
          <mxGeometry x="40" y="1350" width="790" height="220" as="geometry" />
        </mxCell>
        <mxCell id="IGg63-WKs-m-qAbdVnEL-31" value="&lt;b&gt;&lt;i&gt;&lt;font style=&quot;font-size: 14px;&quot;&gt;BaseModel&lt;/font&gt;&lt;/i&gt;&lt;/b&gt;" style="rounded=1;whiteSpace=wrap;html=1;" parent="1" vertex="1">
          <mxGeometry x="80" y="1490" width="120" height="60" as="geometry" />
        </mxCell>
        <mxCell id="IGg63-WKs-m-qAbdVnEL-32" value="&lt;b&gt;&lt;i&gt;&lt;font style=&quot;font-size: 14px;&quot;&gt;BaseEntity&lt;/font&gt;&lt;/i&gt;&lt;/b&gt;" style="rounded=1;whiteSpace=wrap;html=1;" parent="1" vertex="1">
          <mxGeometry x="80" y="1225" width="120" height="60" as="geometry" />
        </mxCell>
        <mxCell id="IGg63-WKs-m-qAbdVnEL-33" style="edgeStyle=orthogonalEdgeStyle;rounded=0;orthogonalLoop=1;jettySize=auto;html=1;entryX=0.25;entryY=1;entryDx=0;entryDy=0;endArrow=diamond;endFill=0;exitX=0.5;exitY=0;exitDx=0;exitDy=0;" parent="1" source="IGg63-WKs-m-qAbdVnEL-34" target="IGg63-WKs-m-qAbdVnEL-43" edge="1">
          <mxGeometry relative="1" as="geometry">
            <Array as="points">
              <mxPoint x="315" y="1310" />
            </Array>
          </mxGeometry>
        </mxCell>
        <mxCell id="IGg63-WKs-m-qAbdVnEL-34" value="&lt;b&gt;&lt;i&gt;&lt;font style=&quot;font-size: 14px;&quot;&gt;&amp;lt;&amp;lt;abstract&amp;gt;&amp;gt;&lt;br&gt;BaseMapper&lt;br&gt;&lt;/font&gt;&lt;/i&gt;&lt;/b&gt;" style="rounded=1;whiteSpace=wrap;html=1;" parent="1" vertex="1">
          <mxGeometry x="230" y="1390" width="170" height="60" as="geometry" />
        </mxCell>
        <mxCell id="IGg63-WKs-m-qAbdVnEL-35" style="edgeStyle=orthogonalEdgeStyle;rounded=0;orthogonalLoop=1;jettySize=auto;html=1;entryX=0.5;entryY=1;entryDx=0;entryDy=0;endArrow=block;endFill=0;" parent="1" source="IGg63-WKs-m-qAbdVnEL-36" target="IGg63-WKs-m-qAbdVnEL-34" edge="1">
          <mxGeometry relative="1" as="geometry" />
        </mxCell>
        <mxCell id="IGg63-WKs-m-qAbdVnEL-36" value="&lt;b&gt;&lt;i&gt;&lt;font style=&quot;font-size: 14px;&quot;&gt;Mapper&lt;br&gt;&lt;/font&gt;&lt;/i&gt;&lt;/b&gt;" style="rounded=1;whiteSpace=wrap;html=1;" parent="1" vertex="1">
          <mxGeometry x="230" y="1490" width="170" height="60" as="geometry" />
        </mxCell>
        <mxCell id="IGg63-WKs-m-qAbdVnEL-37" style="edgeStyle=orthogonalEdgeStyle;rounded=0;orthogonalLoop=1;jettySize=auto;html=1;entryX=0.781;entryY=0.975;entryDx=0;entryDy=0;endArrow=diamond;endFill=0;exitX=0.5;exitY=0;exitDx=0;exitDy=0;entryPerimeter=0;" parent="1" source="IGg63-WKs-m-qAbdVnEL-38" target="IGg63-WKs-m-qAbdVnEL-43" edge="1">
          <mxGeometry relative="1" as="geometry">
            <Array as="points">
              <mxPoint x="517" y="1390" />
            </Array>
          </mxGeometry>
        </mxCell>
        <mxCell id="IGg63-WKs-m-qAbdVnEL-38" value="&lt;b&gt;&lt;i&gt;&lt;font style=&quot;font-size: 14px;&quot;&gt;&amp;lt;&amp;lt;abstract&amp;gt;&amp;gt;&lt;br&gt;BaseDataSource&lt;br&gt;&lt;/font&gt;&lt;/i&gt;&lt;/b&gt;" style="rounded=1;whiteSpace=wrap;html=1;" parent="1" vertex="1">
          <mxGeometry x="430" y="1390" width="170" height="60" as="geometry" />
        </mxCell>
        <mxCell id="IGg63-WKs-m-qAbdVnEL-39" value="" style="edgeStyle=orthogonalEdgeStyle;rounded=0;orthogonalLoop=1;jettySize=auto;html=1;endArrow=block;endFill=0;" parent="1" source="IGg63-WKs-m-qAbdVnEL-40" target="IGg63-WKs-m-qAbdVnEL-38" edge="1">
          <mxGeometry relative="1" as="geometry" />
        </mxCell>
        <mxCell id="IGg63-WKs-m-qAbdVnEL-40" value="&lt;b&gt;&lt;i&gt;&lt;font style=&quot;font-size: 14px;&quot;&gt;DataSource&lt;br&gt;&lt;/font&gt;&lt;/i&gt;&lt;/b&gt;" style="rounded=1;whiteSpace=wrap;html=1;" parent="1" vertex="1">
          <mxGeometry x="430" y="1490" width="170" height="60" as="geometry" />
        </mxCell>
        <mxCell id="IGg63-WKs-m-qAbdVnEL-41" value="" style="edgeStyle=orthogonalEdgeStyle;rounded=0;orthogonalLoop=1;jettySize=auto;html=1;endArrow=diamond;endFill=0;" parent="1" source="IGg63-WKs-m-qAbdVnEL-42" target="IGg63-WKs-m-qAbdVnEL-46" edge="1">
          <mxGeometry relative="1" as="geometry">
            <Array as="points">
              <mxPoint x="415" y="1200" />
              <mxPoint x="415" y="1200" />
            </Array>
          </mxGeometry>
        </mxCell>
        <mxCell id="IGg63-WKs-m-qAbdVnEL-42" value="&lt;b style=&quot;border-color: var(--border-color); font-size: 12px;&quot;&gt;&lt;i style=&quot;border-color: var(--border-color);&quot;&gt;&lt;font style=&quot;border-color: var(--border-color); font-size: 14px;&quot;&gt;&amp;lt;&amp;lt;abstract&amp;gt;&amp;gt;&lt;br style=&quot;border-color: var(--border-color);&quot;&gt;BaseRepository&lt;/font&gt;&lt;/i&gt;&lt;/b&gt;" style="swimlane;childLayout=stackLayout;horizontal=1;startSize=50;horizontalStack=0;rounded=1;fontSize=14;fontStyle=0;strokeWidth=2;resizeParent=0;resizeLast=1;shadow=0;dashed=0;align=center;arcSize=4;whiteSpace=wrap;html=1;fillStyle=auto;" parent="1" vertex="1">
          <mxGeometry x="220" y="1210" width="380" height="90" as="geometry" />
        </mxCell>
        <mxCell id="IGg63-WKs-m-qAbdVnEL-43" value="+mapper BaseMapper&lt;br&gt;+dataSource BaseDataSource" style="align=left;strokeColor=none;fillColor=none;spacingLeft=4;fontSize=12;verticalAlign=top;resizable=0;rotatable=0;part=1;html=1;" parent="IGg63-WKs-m-qAbdVnEL-42" vertex="1">
          <mxGeometry y="50" width="380" height="40" as="geometry" />
        </mxCell>
        <mxCell id="IGg63-WKs-m-qAbdVnEL-44" value="" style="edgeStyle=orthogonalEdgeStyle;rounded=0;orthogonalLoop=1;jettySize=auto;html=1;endArrow=diamond;endFill=0;" parent="1" source="IGg63-WKs-m-qAbdVnEL-45" target="IGg63-WKs-m-qAbdVnEL-53" edge="1">
          <mxGeometry relative="1" as="geometry" />
        </mxCell>
        <mxCell id="IGg63-WKs-m-qAbdVnEL-45" value="&lt;b style=&quot;border-color: var(--border-color); font-size: 12px;&quot;&gt;&lt;i style=&quot;border-color: var(--border-color);&quot;&gt;&lt;font style=&quot;border-color: var(--border-color); font-size: 14px;&quot;&gt;&amp;lt;&amp;lt;abstract&amp;gt;&amp;gt;&lt;br style=&quot;border-color: var(--border-color);&quot;&gt;BaseService&lt;/font&gt;&lt;/i&gt;&lt;/b&gt;" style="swimlane;childLayout=stackLayout;horizontal=1;startSize=50;horizontalStack=0;rounded=1;fontSize=14;fontStyle=0;strokeWidth=2;resizeParent=0;resizeLast=1;shadow=0;dashed=0;align=center;arcSize=4;whiteSpace=wrap;html=1;" parent="1" vertex="1">
          <mxGeometry x="310" y="1070" width="210" height="80" as="geometry" />
        </mxCell>
        <mxCell id="IGg63-WKs-m-qAbdVnEL-46" value="+repository BaseRepository&lt;br&gt;" style="align=left;strokeColor=none;fillColor=none;spacingLeft=4;fontSize=12;verticalAlign=top;resizable=0;rotatable=0;part=1;html=1;" parent="IGg63-WKs-m-qAbdVnEL-45" vertex="1">
          <mxGeometry y="50" width="210" height="30" as="geometry" />
        </mxCell>
        <mxCell id="IGg63-WKs-m-qAbdVnEL-47" value="" style="edgeStyle=orthogonalEdgeStyle;rounded=0;orthogonalLoop=1;jettySize=auto;html=1;entryX=1;entryY=0.5;entryDx=0;entryDy=0;endArrow=block;endFill=0;exitX=0.5;exitY=0;exitDx=0;exitDy=0;" parent="1" source="IGg63-WKs-m-qAbdVnEL-48" target="IGg63-WKs-m-qAbdVnEL-42" edge="1">
          <mxGeometry relative="1" as="geometry" />
        </mxCell>
        <mxCell id="IGg63-WKs-m-qAbdVnEL-48" value="&lt;b&gt;&lt;i&gt;&lt;font style=&quot;font-size: 14px;&quot;&gt;Repository&lt;br&gt;&lt;/font&gt;&lt;/i&gt;&lt;/b&gt;" style="rounded=1;whiteSpace=wrap;html=1;" parent="1" vertex="1">
          <mxGeometry x="640" y="1390" width="170" height="60" as="geometry" />
        </mxCell>
        <mxCell id="IGg63-WKs-m-qAbdVnEL-49" value="" style="edgeStyle=orthogonalEdgeStyle;rounded=0;orthogonalLoop=1;jettySize=auto;html=1;entryX=1;entryY=0.5;entryDx=0;entryDy=0;endArrow=block;endFill=0;exitX=0;exitY=0.5;exitDx=0;exitDy=0;" parent="1" source="IGg63-WKs-m-qAbdVnEL-50" target="IGg63-WKs-m-qAbdVnEL-45" edge="1">
          <mxGeometry relative="1" as="geometry" />
        </mxCell>
        <mxCell id="IGg63-WKs-m-qAbdVnEL-50" value="&lt;b&gt;&lt;i&gt;&lt;font style=&quot;font-size: 14px;&quot;&gt;Service&lt;br&gt;&lt;/font&gt;&lt;/i&gt;&lt;/b&gt;" style="rounded=1;whiteSpace=wrap;html=1;" parent="1" vertex="1">
          <mxGeometry x="640" y="1080" width="170" height="60" as="geometry" />
        </mxCell>
        <mxCell id="IGg63-WKs-m-qAbdVnEL-51" value="" style="edgeStyle=orthogonalEdgeStyle;rounded=0;orthogonalLoop=1;jettySize=auto;html=1;endArrow=diamond;endFill=0;" parent="1" source="IGg63-WKs-m-qAbdVnEL-52" target="IGg63-WKs-m-qAbdVnEL-57" edge="1">
          <mxGeometry relative="1" as="geometry" />
        </mxCell>
        <mxCell id="IGg63-WKs-m-qAbdVnEL-52" value="&lt;b&gt;&lt;i&gt;Bloc&lt;/i&gt;&lt;/b&gt;" style="swimlane;childLayout=stackLayout;horizontal=1;startSize=50;horizontalStack=0;rounded=1;fontSize=14;fontStyle=0;strokeWidth=2;resizeParent=0;resizeLast=1;shadow=0;dashed=0;align=center;arcSize=4;whiteSpace=wrap;html=1;" parent="1" vertex="1">
          <mxGeometry x="310" y="930" width="210" height="80" as="geometry" />
        </mxCell>
        <mxCell id="IGg63-WKs-m-qAbdVnEL-53" value="+service BaseService" style="align=left;strokeColor=none;fillColor=none;spacingLeft=4;fontSize=12;verticalAlign=top;resizable=0;rotatable=0;part=1;html=1;" parent="IGg63-WKs-m-qAbdVnEL-52" vertex="1">
          <mxGeometry y="50" width="210" height="30" as="geometry" />
        </mxCell>
        <mxCell id="IGg63-WKs-m-qAbdVnEL-54" value="" style="edgeStyle=orthogonalEdgeStyle;rounded=0;orthogonalLoop=1;jettySize=auto;html=1;entryX=1;entryY=0.5;entryDx=0;entryDy=0;endArrow=diamond;endFill=0;" parent="1" source="IGg63-WKs-m-qAbdVnEL-55" target="IGg63-WKs-m-qAbdVnEL-56" edge="1">
          <mxGeometry relative="1" as="geometry" />
        </mxCell>
        <mxCell id="IGg63-WKs-m-qAbdVnEL-55" value="&lt;b&gt;&lt;i&gt;&lt;font style=&quot;font-size: 14px;&quot;&gt;Widget&lt;br&gt;&lt;/font&gt;&lt;/i&gt;&lt;/b&gt;" style="rounded=1;whiteSpace=wrap;html=1;" parent="1" vertex="1">
          <mxGeometry x="640" y="795" width="170" height="60" as="geometry" />
        </mxCell>
        <mxCell id="IGg63-WKs-m-qAbdVnEL-56" value="&lt;b&gt;&lt;i&gt;Page&lt;/i&gt;&lt;/b&gt;" style="swimlane;childLayout=stackLayout;horizontal=1;startSize=50;horizontalStack=0;rounded=1;fontSize=14;fontStyle=0;strokeWidth=2;resizeParent=0;resizeLast=1;shadow=0;dashed=0;align=center;arcSize=4;whiteSpace=wrap;html=1;" parent="1" vertex="1">
          <mxGeometry x="310" y="780" width="210" height="90" as="geometry" />
        </mxCell>
        <mxCell id="IGg63-WKs-m-qAbdVnEL-57" value="+bloc Bloc&lt;br&gt;+widget Widget" style="align=left;strokeColor=none;fillColor=none;spacingLeft=4;fontSize=12;verticalAlign=top;resizable=0;rotatable=0;part=1;html=1;" parent="IGg63-WKs-m-qAbdVnEL-56" vertex="1">
          <mxGeometry y="50" width="210" height="40" as="geometry" />
        </mxCell>
        <mxCell id="IGg63-WKs-m-qAbdVnEL-58" value="Presentation" style="text;strokeColor=none;fillColor=none;html=1;fontSize=24;fontStyle=3;verticalAlign=middle;align=center;" parent="1" vertex="1">
          <mxGeometry x="50" y="760" width="160" height="40" as="geometry" />
        </mxCell>
        <mxCell id="IGg63-WKs-m-qAbdVnEL-59" value="Domain" style="text;strokeColor=none;fillColor=none;html=1;fontSize=24;fontStyle=3;verticalAlign=middle;align=center;" parent="1" vertex="1">
          <mxGeometry x="50" y="1050" width="100" height="40" as="geometry" />
        </mxCell>
        <mxCell id="IGg63-WKs-m-qAbdVnEL-60" value="Data" style="text;strokeColor=none;fillColor=none;html=1;fontSize=24;fontStyle=3;verticalAlign=middle;align=center;" parent="1" vertex="1">
          <mxGeometry x="50" y="1370" width="60" height="40" as="geometry" />
        </mxCell>
      </root>
    </mxGraphModel>
  </diagram>
</mxfile>
